# xmcd CD database file
#
# Track frame offsets:
#	150
#	44907
#	83392
#	120737
#	161522
#	189117
#	221940
#
# Disc length: 3341 seconds
#
# Revision: 0
# Processed by: cddbd v1.4PL0 Copyright (c) Steve Scherf et al.
# Submitted via: CDex 1.50Beta7
#
DISCID=5a0d0b07
DTITLE=PericoSambeat with Brad Mehldau and Mark Turner - Ademuz
DYEAR=1998
DGENRE=Jazz
TTITLE0=A Free K
TTITLE1=Ademuz
TTITLE2=Tu Rosto Oculto
TTITLE3=Expedicion
TTITLE4=La Noche de Lemuria
TTITLE5=Porta do Ferro
TTITLE6=Barri de La Coma
EXTD=YEAR: 1998
EXTT0=
EXTT1=
EXTT2=
EXTT3=
EXTT4=
EXTT5=
EXTT6=
PLAYORDER=
